<?xml version="1.0" encoding="UTF-8" standalone="no"?>
<!DOCTYPE svg PUBLIC "-//W3C//DTD SVG 1.1//EN"
 "http://www.w3.org/Graphics/SVG/1.1/DTD/svg11.dtd">
<!-- Generated by graphviz version 2.30.1 (20180420.1509)
 -->
<!-- Title: Sarek_DAG Pages: 1 -->
<svg width="1902pt" height="659pt"
 viewBox="0.00 0.00 1902.00 658.60" xmlns="http://www.w3.org/2000/svg" xmlns:xlink="http://www.w3.org/1999/xlink">
<g id="graph0" class="graph" transform="scale(1 1) rotate(0) translate(4 654.6)">
<title>Sarek_DAG</title>
<polygon fill="white" stroke="white" points="-4,5 -4,-654.6 1899,-654.6 1899,5 -4,5"/>
<!-- p0 -->
<g id="node1" class="node"><title>p0</title>
<ellipse fill="black" stroke="black" cx="868" cy="-632" rx="3.6" ry="3.6"/>
<text text-anchor="middle" x="814.4" y="-639.4" font-family="Times,serif" font-size="14.00">Channel.fromPath</text>
</g>
<!-- p11 -->
<g id="node2" class="node"><title>p11</title>
<ellipse fill="none" stroke="black" cx="868" cy="-558" rx="3.25" ry="3.5"/>
<text text-anchor="middle" x="846.5" y="-565.3" font-family="Times,serif" font-size="14.00">choice</text>
</g>
<!-- p0&#45;&gt;p11 -->
<g id="edge1" class="edge"><title>p0&#45;&gt;p11</title>
<path fill="none" stroke="black" d="M868,-628.265C868,-619.133 868,-589.282 868,-571.892"/>
<polygon fill="black" stroke="black" points="871.5,-571.737 868,-561.737 864.5,-571.737 871.5,-571.737"/>
<text text-anchor="middle" x="919" y="-598.3" font-family="Times,serif" font-size="14.00">ch_referencesFiles</text>
</g>
<!-- p12 -->
<g id="node13" class="node"><title>p12</title>
<ellipse fill="none" stroke="black" cx="783" cy="-470" rx="68.3664" ry="18"/>
<text text-anchor="middle" x="783" y="-466.3" font-family="Times,serif" font-size="14.00">DecompressFile</text>
</g>
<!-- p11&#45;&gt;p12 -->
<g id="edge10" class="edge"><title>p11&#45;&gt;p12</title>
<path fill="none" stroke="black" d="M865.955,-555.143C860.297,-549.988 843.989,-535.021 831,-522 822.453,-513.432 813.297,-503.817 805.296,-495.264"/>
<polygon fill="black" stroke="black" points="807.698,-492.708 798.325,-487.769 802.573,-497.475 807.698,-492.708"/>
<text text-anchor="middle" x="885" y="-510.3" font-family="Times,serif" font-size="14.00">ch_compressedfiles</text>
</g>
<!-- p17 -->
<g id="node14" class="node"><title>p17</title>
<ellipse fill="none" stroke="black" cx="801" cy="-166" rx="3.25" ry="3.5"/>
<text text-anchor="middle" x="786.5" y="-173.3" font-family="Times,serif" font-size="14.00">mix</text>
</g>
<!-- p11&#45;&gt;p17 -->
<g id="edge11" class="edge"><title>p11&#45;&gt;p17</title>
<path fill="none" stroke="black" d="M870.968,-556.442C881.85,-554.238 919.922,-545.099 939,-522 953.968,-503.877 953,-494.505 953,-471 953,-471 953,-471 953,-243 953,-181.243 851.378,-169.667 814.318,-167.499"/>
<polygon fill="black" stroke="black" points="814.317,-163.996 804.175,-167.058 814.013,-170.989 814.317,-163.996"/>
<text text-anchor="middle" x="1017" y="-334.3" font-family="Times,serif" font-size="14.00">ch_notCompressedfiles</text>
</g>
<!-- p1 -->
<g id="node3" class="node"><title>p1</title>
<ellipse fill="black" stroke="black" cx="1104" cy="-632" rx="3.6" ry="3.6"/>
</g>
<!-- p2 -->
<g id="node4" class="node"><title>p2</title>
<ellipse fill="none" stroke="black" cx="1104" cy="-558" rx="74.1402" ry="18"/>
<text text-anchor="middle" x="1104" y="-554.3" font-family="Times,serif" font-size="14.00">BuildWithDocker</text>
</g>
<!-- p1&#45;&gt;p2 -->
<g id="edge2" class="edge"><title>p1&#45;&gt;p2</title>
<path fill="none" stroke="black" d="M1104,-628.265C1104,-621.354 1104,-602.578 1104,-586.316"/>
<polygon fill="black" stroke="black" points="1107.5,-586.143 1104,-576.143 1100.5,-586.143 1107.5,-586.143"/>
<text text-anchor="middle" x="1129.5" y="-598.3" font-family="Times,serif" font-size="14.00">container</text>
</g>
<!-- p3 -->
<g id="node5" class="node"><title>p3</title>
<ellipse fill="none" stroke="black" cx="1104" cy="-470" rx="3.25" ry="3.5"/>
<text text-anchor="middle" x="1087" y="-477.3" font-family="Times,serif" font-size="14.00">view</text>
</g>
<!-- p2&#45;&gt;p3 -->
<g id="edge3" class="edge"><title>p2&#45;&gt;p3</title>
<path fill="none" stroke="black" d="M1104,-539.597C1104,-523.046 1104,-498.54 1104,-483.737"/>
<polygon fill="black" stroke="black" points="1107.5,-483.671 1104,-473.671 1100.5,-483.671 1107.5,-483.671"/>
<text text-anchor="middle" x="1129.5" y="-510.3" font-family="Times,serif" font-size="14.00">container</text>
</g>
<!-- p8 -->
<g id="node6" class="node"><title>p8</title>
<ellipse fill="none" stroke="black" cx="1104" cy="-382" rx="63.5411" ry="18"/>
<text text-anchor="middle" x="1104" y="-378.3" font-family="Times,serif" font-size="14.00">PushToDocker</text>
</g>
<!-- p3&#45;&gt;p8 -->
<g id="edge4" class="edge"><title>p3&#45;&gt;p8</title>
<path fill="none" stroke="black" d="M1104,-466.139C1104,-457.502 1104,-431.011 1104,-410.227"/>
<polygon fill="black" stroke="black" points="1107.5,-410.004 1104,-400.004 1100.5,-410.004 1107.5,-410.004"/>
<text text-anchor="middle" x="1145.5" y="-422.3" font-family="Times,serif" font-size="14.00">containersBuilt</text>
</g>
<!-- p9 -->
<g id="node11" class="node"><title>p9</title>
<ellipse fill="none" stroke="black" cx="1104" cy="-308" rx="3.25" ry="3.5"/>
<text text-anchor="middle" x="1087" y="-315.3" font-family="Times,serif" font-size="14.00">view</text>
</g>
<!-- p8&#45;&gt;p9 -->
<g id="edge8" class="edge"><title>p8&#45;&gt;p9</title>
<path fill="none" stroke="black" d="M1104,-363.937C1104,-351.126 1104,-333.843 1104,-322.107"/>
<polygon fill="black" stroke="black" points="1107.5,-321.748 1104,-311.748 1100.5,-321.748 1107.5,-321.748"/>
<text text-anchor="middle" x="1129.5" y="-334.3" font-family="Times,serif" font-size="14.00">container</text>
</g>
<!-- p4 -->
<g id="node7" class="node"><title>p4</title>
<ellipse fill="black" stroke="black" cx="1270" cy="-632" rx="3.6" ry="3.6"/>
</g>
<!-- p5 -->
<g id="node8" class="node"><title>p5</title>
<ellipse fill="none" stroke="black" cx="1270" cy="-558" rx="73.1654" ry="18"/>
<text text-anchor="middle" x="1270" y="-554.3" font-family="Times,serif" font-size="14.00">PullToSingularity</text>
</g>
<!-- p4&#45;&gt;p5 -->
<g id="edge5" class="edge"><title>p4&#45;&gt;p5</title>
<path fill="none" stroke="black" d="M1270,-628.265C1270,-621.354 1270,-602.578 1270,-586.316"/>
<polygon fill="black" stroke="black" points="1273.5,-586.143 1270,-576.143 1266.5,-586.143 1273.5,-586.143"/>
<text text-anchor="middle" x="1295.5" y="-598.3" font-family="Times,serif" font-size="14.00">container</text>
</g>
<!-- p6 -->
<g id="node9" class="node"><title>p6</title>
<ellipse fill="none" stroke="black" cx="1270" cy="-470" rx="3.25" ry="3.5"/>
<text text-anchor="middle" x="1253" y="-477.3" font-family="Times,serif" font-size="14.00">view</text>
</g>
<!-- p5&#45;&gt;p6 -->
<g id="edge6" class="edge"><title>p5&#45;&gt;p6</title>
<path fill="none" stroke="black" d="M1270,-539.597C1270,-523.046 1270,-498.54 1270,-483.737"/>
<polygon fill="black" stroke="black" points="1273.5,-483.671 1270,-473.671 1266.5,-483.671 1273.5,-483.671"/>
</g>
<!-- p7 -->
<g id="node10" class="node"><title>p7</title>
<ellipse fill="black" stroke="black" cx="1270" cy="-382" rx="1.8" ry="1.8"/>
</g>
<!-- p6&#45;&gt;p7 -->
<g id="edge7" class="edge"><title>p6&#45;&gt;p7</title>
<path fill="none" stroke="black" d="M1270,-466.139C1270,-454.975 1270,-413.985 1270,-394.043"/>
<polygon fill="black" stroke="black" points="1273.5,-393.969 1270,-383.97 1266.5,-393.97 1273.5,-393.969"/>
<text text-anchor="middle" x="1304.5" y="-422.3" font-family="Times,serif" font-size="14.00">imagePulled</text>
</g>
<!-- p10 -->
<g id="node12" class="node"><title>p10</title>
<ellipse fill="black" stroke="black" cx="1104" cy="-244" rx="1.8" ry="1.8"/>
</g>
<!-- p9&#45;&gt;p10 -->
<g id="edge9" class="edge"><title>p9&#45;&gt;p10</title>
<path fill="none" stroke="black" d="M1104,-304.336C1104,-296.131 1104,-270.907 1104,-256.12"/>
<polygon fill="black" stroke="black" points="1107.5,-255.83 1104,-245.83 1100.5,-255.83 1107.5,-255.83"/>
<text text-anchor="middle" x="1151.5" y="-274.3" font-family="Times,serif" font-size="14.00">containersPushed</text>
</g>
<!-- p13 -->
<g id="node15" class="node"><title>p13</title>
<ellipse fill="none" stroke="black" cx="774" cy="-382" rx="3.25" ry="3.5"/>
<text text-anchor="middle" x="757" y="-389.3" font-family="Times,serif" font-size="14.00">view</text>
</g>
<!-- p12&#45;&gt;p13 -->
<g id="edge12" class="edge"><title>p12&#45;&gt;p13</title>
<path fill="none" stroke="black" d="M781.179,-451.597C779.447,-435.046 776.882,-410.54 775.333,-395.737"/>
<polygon fill="black" stroke="black" points="778.801,-395.252 774.28,-385.671 771.839,-395.981 778.801,-395.252"/>
</g>
<!-- p18 -->
<g id="node23" class="node"><title>p18</title>
<ellipse fill="none" stroke="black" cx="801" cy="-92" rx="3.25" ry="3.5"/>
<text text-anchor="middle" x="768.5" y="-99.3" font-family="Times,serif" font-size="14.00">collectFile</text>
</g>
<!-- p17&#45;&gt;p18 -->
<g id="edge23" class="edge"><title>p17&#45;&gt;p18</title>
<path fill="none" stroke="black" d="M801,-162.265C801,-153.133 801,-123.282 801,-105.892"/>
<polygon fill="black" stroke="black" points="804.5,-105.737 801,-95.7373 797.5,-105.737 804.5,-105.737"/>
</g>
<!-- p14 -->
<g id="node16" class="node"><title>p14</title>
<ellipse fill="none" stroke="black" cx="756" cy="-308" rx="3.25" ry="3.5"/>
<text text-anchor="middle" x="734.5" y="-315.3" font-family="Times,serif" font-size="14.00">choice</text>
</g>
<!-- p13&#45;&gt;p14 -->
<g id="edge13" class="edge"><title>p13&#45;&gt;p14</title>
<path fill="none" stroke="black" d="M773.316,-378.265C771.022,-369.088 763.498,-338.99 759.16,-321.638"/>
<polygon fill="black" stroke="black" points="762.505,-320.59 756.684,-311.737 755.714,-322.288 762.505,-320.59"/>
<text text-anchor="middle" x="827" y="-334.3" font-family="Times,serif" font-size="14.00">ch_decompressedFiles</text>
</g>
<!-- p15 -->
<g id="node17" class="node"><title>p15</title>
<ellipse fill="none" stroke="black" cx="405" cy="-244" rx="3.25" ry="3.5"/>
<text text-anchor="middle" x="390.5" y="-251.3" font-family="Times,serif" font-size="14.00">into</text>
</g>
<!-- p14&#45;&gt;p15 -->
<g id="edge14" class="edge"><title>p14&#45;&gt;p15</title>
<path fill="none" stroke="black" d="M752.966,-306.464C722.877,-301.149 477.905,-257.878 418.122,-247.318"/>
<polygon fill="black" stroke="black" points="418.568,-243.842 408.111,-245.55 417.35,-250.736 418.568,-243.842"/>
<text text-anchor="middle" x="666.5" y="-274.3" font-family="Times,serif" font-size="14.00">ch_fastaFile</text>
</g>
<!-- p16 -->
<g id="node18" class="node"><title>p16</title>
<ellipse fill="none" stroke="black" cx="739" cy="-244" rx="3.25" ry="3.5"/>
<text text-anchor="middle" x="724.5" y="-251.3" font-family="Times,serif" font-size="14.00">into</text>
</g>
<!-- p14&#45;&gt;p16 -->
<g id="edge15" class="edge"><title>p14&#45;&gt;p16</title>
<path fill="none" stroke="black" d="M755.27,-304.336C753.085,-296.368 746.5,-272.353 742.408,-257.43"/>
<polygon fill="black" stroke="black" points="745.729,-256.304 739.709,-247.585 738.978,-258.155 745.729,-256.304"/>
</g>
<!-- p14&#45;&gt;p17 -->
<g id="edge16" class="edge"><title>p14&#45;&gt;p17</title>
<path fill="none" stroke="black" d="M758.517,-305.475C770.71,-297.915 823.802,-263.021 842,-218 844.665,-211.407 844.978,-208.458 842,-202 836.013,-189.018 822.574,-179.067 812.707,-173.152"/>
<polygon fill="black" stroke="black" points="814.379,-170.078 803.924,-168.366 811.03,-176.224 814.379,-170.078"/>
<text text-anchor="middle" x="867.5" y="-240.3" font-family="Times,serif" font-size="14.00">ch_otherFile</text>
</g>
<!-- p20 -->
<g id="node19" class="node"><title>p20</title>
<ellipse fill="none" stroke="black" cx="464" cy="-166" rx="77.4897" ry="18"/>
<text text-anchor="middle" x="464" y="-162.3" font-family="Times,serif" font-size="14.00">BuildBWAindexes</text>
</g>
<!-- p15&#45;&gt;p20 -->
<g id="edge17" class="edge"><title>p15&#45;&gt;p20</title>
<path fill="none" stroke="black" d="M404.308,-240.567C402.551,-233.869 398.563,-214.807 406,-202 409.178,-196.527 413.583,-191.809 418.558,-187.769"/>
<polygon fill="black" stroke="black" points="420.612,-190.604 426.752,-181.969 416.568,-184.89 420.612,-190.604"/>
<text text-anchor="middle" x="454.5" y="-206.3" font-family="Times,serif" font-size="14.00">ch_fastaForBWA</text>
</g>
<!-- p24 -->
<g id="node20" class="node"><title>p24</title>
<ellipse fill="none" stroke="black" cx="282" cy="-166" rx="85.19" ry="18"/>
<text text-anchor="middle" x="282" y="-162.3" font-family="Times,serif" font-size="14.00">BuildReferenceIndex</text>
</g>
<!-- p15&#45;&gt;p24 -->
<g id="edge18" class="edge"><title>p15&#45;&gt;p24</title>
<path fill="none" stroke="black" d="M401.482,-243.319C386.711,-244.453 329.04,-246.811 298,-218 291.352,-211.829 287.448,-202.935 285.162,-194.297"/>
<polygon fill="black" stroke="black" points="288.582,-193.552 283.154,-184.453 281.723,-194.951 288.582,-193.552"/>
<text text-anchor="middle" x="348" y="-206.3" font-family="Times,serif" font-size="14.00">ch_fastaReference</text>
</g>
<!-- p27 -->
<g id="node21" class="node"><title>p27</title>
<ellipse fill="none" stroke="black" cx="89" cy="-166" rx="89.5377" ry="18"/>
<text text-anchor="middle" x="89" y="-162.3" font-family="Times,serif" font-size="14.00">BuildSAMToolsIndex</text>
</g>
<!-- p15&#45;&gt;p27 -->
<g id="edge19" class="edge"><title>p15&#45;&gt;p27</title>
<path fill="none" stroke="black" d="M401.596,-242.898C375.456,-242.075 206.31,-236.103 159,-218 142.642,-211.741 126.677,-200.618 114.135,-190.355"/>
<polygon fill="black" stroke="black" points="116.303,-187.604 106.417,-183.794 111.769,-192.937 116.303,-187.604"/>
<text text-anchor="middle" x="221.5" y="-206.3" font-family="Times,serif" font-size="14.00">ch_fastaForSAMTools</text>
</g>
<!-- p15&#45;&gt;p17 -->
<g id="edge20" class="edge"><title>p15&#45;&gt;p17</title>
<path fill="none" stroke="black" d="M408.07,-242.302C420.201,-239.526 465.937,-228.889 503,-218 524.575,-211.661 529.006,-206.685 551,-202 630.932,-184.972 653.498,-198.09 734,-184 753.17,-180.645 774.94,-174.718 788.322,-170.825"/>
<polygon fill="black" stroke="black" points="789.645,-174.082 798.224,-167.865 787.641,-167.376 789.645,-174.082"/>
<text text-anchor="middle" x="606" y="-206.3" font-family="Times,serif" font-size="14.00">ch_fastaFileToKeep</text>
</g>
<!-- p30 -->
<g id="node22" class="node"><title>p30</title>
<ellipse fill="none" stroke="black" cx="658" cy="-166" rx="67.3907" ry="18"/>
<text text-anchor="middle" x="658" y="-162.3" font-family="Times,serif" font-size="14.00">BuildVCFIndex</text>
</g>
<!-- p16&#45;&gt;p30 -->
<g id="edge21" class="edge"><title>p16&#45;&gt;p30</title>
<path fill="none" stroke="black" d="M735.755,-242.725C725.232,-241.66 691.709,-236.864 674,-218 667.859,-211.458 664.075,-202.583 661.742,-194.07"/>
<polygon fill="black" stroke="black" points="665.107,-193.072 659.557,-184.047 658.268,-194.563 665.107,-193.072"/>
<text text-anchor="middle" x="703" y="-206.3" font-family="Times,serif" font-size="14.00">ch_vcfFile</text>
</g>
<!-- p16&#45;&gt;p17 -->
<g id="edge22" class="edge"><title>p16&#45;&gt;p17</title>
<path fill="none" stroke="black" d="M738.293,-240.558C736.498,-233.838 732.422,-214.724 740,-202 750.543,-184.298 773.692,-174.725 788.247,-170.257"/>
<polygon fill="black" stroke="black" points="789.238,-173.614 797.986,-167.637 787.42,-166.855 789.238,-173.614"/>
<text text-anchor="middle" x="791" y="-206.3" font-family="Times,serif" font-size="14.00">ch_vcfFileToKeep</text>
</g>
<!-- p21 -->
<g id="node25" class="node"><title>p21</title>
<ellipse fill="none" stroke="black" cx="464" cy="-92" rx="3.25" ry="3.5"/>
<text text-anchor="middle" x="443" y="-99.3" font-family="Times,serif" font-size="14.00">flatten</text>
</g>
<!-- p20&#45;&gt;p21 -->
<g id="edge25" class="edge"><title>p20&#45;&gt;p21</title>
<path fill="none" stroke="black" d="M464,-147.937C464,-135.126 464,-117.843 464,-106.107"/>
<polygon fill="black" stroke="black" points="467.5,-105.748 464,-95.7482 460.5,-105.748 467.5,-105.748"/>
<text text-anchor="middle" x="496.5" y="-118.3" font-family="Times,serif" font-size="14.00">bwaIndexes</text>
</g>
<!-- p25 -->
<g id="node28" class="node"><title>p25</title>
<ellipse fill="none" stroke="black" cx="282" cy="-92" rx="3.25" ry="3.5"/>
<text text-anchor="middle" x="265" y="-99.3" font-family="Times,serif" font-size="14.00">view</text>
</g>
<!-- p24&#45;&gt;p25 -->
<g id="edge28" class="edge"><title>p24&#45;&gt;p25</title>
<path fill="none" stroke="black" d="M282,-147.937C282,-135.126 282,-117.843 282,-106.107"/>
<polygon fill="black" stroke="black" points="285.5,-105.748 282,-95.7482 278.5,-105.748 285.5,-105.748"/>
<text text-anchor="middle" x="332.5" y="-118.3" font-family="Times,serif" font-size="14.00">ch_referenceIndex</text>
</g>
<!-- p28 -->
<g id="node30" class="node"><title>p28</title>
<ellipse fill="none" stroke="black" cx="89" cy="-92" rx="3.25" ry="3.5"/>
<text text-anchor="middle" x="72" y="-99.3" font-family="Times,serif" font-size="14.00">view</text>
</g>
<!-- p27&#45;&gt;p28 -->
<g id="edge30" class="edge"><title>p27&#45;&gt;p28</title>
<path fill="none" stroke="black" d="M89,-147.937C89,-135.126 89,-117.843 89,-106.107"/>
<polygon fill="black" stroke="black" points="92.5001,-105.748 89,-95.7482 85.5001,-105.748 92.5001,-105.748"/>
<text text-anchor="middle" x="139" y="-118.3" font-family="Times,serif" font-size="14.00">ch_samtoolsIndex</text>
</g>
<!-- p31 -->
<g id="node32" class="node"><title>p31</title>
<ellipse fill="none" stroke="black" cx="658" cy="-92" rx="3.25" ry="3.5"/>
<text text-anchor="middle" x="641" y="-99.3" font-family="Times,serif" font-size="14.00">view</text>
</g>
<!-- p30&#45;&gt;p31 -->
<g id="edge32" class="edge"><title>p30&#45;&gt;p31</title>
<path fill="none" stroke="black" d="M658,-147.937C658,-135.126 658,-117.843 658,-106.107"/>
<polygon fill="black" stroke="black" points="661.5,-105.748 658,-95.7482 654.5,-105.748 661.5,-105.748"/>
<text text-anchor="middle" x="692" y="-118.3" font-family="Times,serif" font-size="14.00">ch_vcfIndex</text>
</g>
<!-- p19 -->
<g id="node24" class="node"><title>p19</title>
<ellipse fill="black" stroke="black" cx="801" cy="-46" rx="1.8" ry="1.8"/>
</g>
<!-- p18&#45;&gt;p19 -->
<g id="edge24" class="edge"><title>p18&#45;&gt;p19</title>
<path fill="none" stroke="black" d="M801,-88.3794C801,-82.6164 801,-68.5493 801,-58.4156"/>
<polygon fill="black" stroke="black" points="804.5,-58.3895 801,-48.3895 797.5,-58.3895 804.5,-58.3895"/>
</g>
<!-- p22 -->
<g id="node26" class="node"><title>p22</title>
<ellipse fill="none" stroke="black" cx="464" cy="-46" rx="3.25" ry="3.5"/>
<text text-anchor="middle" x="447" y="-53.3" font-family="Times,serif" font-size="14.00">view</text>
</g>
<!-- p21&#45;&gt;p22 -->
<g id="edge26" class="edge"><title>p21&#45;&gt;p22</title>
<path fill="none" stroke="black" d="M464,-88.3794C464,-82.8638 464,-69.742 464,-59.7417"/>
<polygon fill="black" stroke="black" points="467.5,-59.5517 464,-49.5518 460.5,-59.5518 467.5,-59.5517"/>
</g>
<!-- p23 -->
<g id="node27" class="node"><title>p23</title>
<ellipse fill="black" stroke="black" cx="464" cy="-2" rx="1.8" ry="1.8"/>
</g>
<!-- p22&#45;&gt;p23 -->
<g id="edge27" class="edge"><title>p22&#45;&gt;p23</title>
<path fill="none" stroke="black" d="M464,-42.2443C464,-36.6872 464,-23.8593 464,-14.3745"/>
<polygon fill="black" stroke="black" points="467.5,-14.303 464,-4.30303 460.5,-14.3031 467.5,-14.303"/>
</g>
<!-- p26 -->
<g id="node29" class="node"><title>p26</title>
<ellipse fill="black" stroke="black" cx="282" cy="-46" rx="1.8" ry="1.8"/>
</g>
<!-- p25&#45;&gt;p26 -->
<g id="edge29" class="edge"><title>p25&#45;&gt;p26</title>
<path fill="none" stroke="black" d="M282,-88.3794C282,-82.6164 282,-68.5493 282,-58.4156"/>
<polygon fill="black" stroke="black" points="285.5,-58.3895 282,-48.3895 278.5,-58.3895 285.5,-58.3895"/>
</g>
<!-- p29 -->
<g id="node31" class="node"><title>p29</title>
<ellipse fill="black" stroke="black" cx="89" cy="-46" rx="1.8" ry="1.8"/>
</g>
<!-- p28&#45;&gt;p29 -->
<g id="edge31" class="edge"><title>p28&#45;&gt;p29</title>
<path fill="none" stroke="black" d="M89,-88.3794C89,-82.6164 89,-68.5493 89,-58.4156"/>
<polygon fill="black" stroke="black" points="92.5001,-58.3895 89,-48.3895 85.5001,-58.3895 92.5001,-58.3895"/>
</g>
<!-- p32 -->
<g id="node33" class="node"><title>p32</title>
<ellipse fill="black" stroke="black" cx="658" cy="-46" rx="1.8" ry="1.8"/>
</g>
<!-- p31&#45;&gt;p32 -->
<g id="edge33" class="edge"><title>p31&#45;&gt;p32</title>
<path fill="none" stroke="black" d="M658,-88.3794C658,-82.6164 658,-68.5493 658,-58.4156"/>
<polygon fill="black" stroke="black" points="661.5,-58.3895 658,-48.3895 654.5,-58.3895 661.5,-58.3895"/>
</g>
<!-- p33 -->
<g id="node34" class="node"><title>p33</title>
<ellipse fill="black" stroke="black" cx="1441" cy="-632" rx="3.6" ry="3.6"/>
</g>
<!-- p34 -->
<g id="node35" class="node"><title>p34</title>
<ellipse fill="none" stroke="black" cx="1441" cy="-558" rx="79.4147" ry="18"/>
<text text-anchor="middle" x="1441" y="-554.3" font-family="Times,serif" font-size="14.00">BuildCache_snpEff</text>
</g>
<!-- p33&#45;&gt;p34 -->
<g id="edge34" class="edge"><title>p33&#45;&gt;p34</title>
<path fill="none" stroke="black" d="M1441,-628.265C1441,-621.354 1441,-602.578 1441,-586.316"/>
<polygon fill="black" stroke="black" points="1444.5,-586.143 1441,-576.143 1437.5,-586.143 1444.5,-586.143"/>
<text text-anchor="middle" x="1466.5" y="-598.3" font-family="Times,serif" font-size="14.00">snpeffDb</text>
</g>
<!-- p35 -->
<g id="node36" class="node"><title>p35</title>
<ellipse fill="black" stroke="black" cx="1612" cy="-632" rx="3.6" ry="3.6"/>
</g>
<!-- p36 -->
<g id="node37" class="node"><title>p36</title>
<ellipse fill="none" stroke="black" cx="1612" cy="-558" rx="73.1654" ry="18"/>
<text text-anchor="middle" x="1612" y="-554.3" font-family="Times,serif" font-size="14.00">BuildCache_VEP</text>
</g>
<!-- p35&#45;&gt;p36 -->
<g id="edge35" class="edge"><title>p35&#45;&gt;p36</title>
<path fill="none" stroke="black" d="M1612,-628.265C1612,-621.354 1612,-602.578 1612,-586.316"/>
<polygon fill="black" stroke="black" points="1615.5,-586.143 1612,-576.143 1608.5,-586.143 1615.5,-586.143"/>
<text text-anchor="middle" x="1651" y="-598.3" font-family="Times,serif" font-size="14.00">cache_version</text>
</g>
<!-- p37 -->
<g id="node38" class="node"><title>p37</title>
<ellipse fill="black" stroke="black" cx="1776" cy="-632" rx="3.6" ry="3.6"/>
<text text-anchor="middle" x="1730.4" y="-639.4" font-family="Times,serif" font-size="14.00">Channel.empty</text>
</g>
<!-- p38 -->
<g id="node39" class="node"><title>p38</title>
<ellipse fill="none" stroke="black" cx="1776" cy="-558" rx="72.2155" ry="18"/>
<text text-anchor="middle" x="1776" y="-554.3" font-family="Times,serif" font-size="14.00">DownloadCADD</text>
</g>
<!-- p37&#45;&gt;p38 -->
<g id="edge36" class="edge"><title>p37&#45;&gt;p38</title>
<path fill="none" stroke="black" d="M1776,-628.265C1776,-621.354 1776,-602.578 1776,-586.316"/>
<polygon fill="black" stroke="black" points="1779.5,-586.143 1776,-576.143 1772.5,-586.143 1779.5,-586.143"/>
<text text-anchor="middle" x="1835" y="-598.3" font-family="Times,serif" font-size="14.00">caddFileToDownload</text>
</g>
</g>
</svg>
